<svg width="1728" height="1117" viewBox="0 0 1728 1117" fill="none" xmlns="http://www.w3.org/2000/svg">
<g clip-path="url(#clip0_38_79)">
<path d="M0 -21.4498C49 -21.4498 439.482 -48.5904 469.5 -6.16171C499.518 36.267 492 127.354 441.5 144.171C391 160.988 258.251 200.41 282.811 225.349C307.619 250.288 318.286 315.713 341.11 345.51C363.933 375.631 373.976 421.813 413.42 423.432C413.42 423.432 440.032 423.432 488.148 467.768C487.156 522.18 519.023 532.389 537.877 565.102C556.979 598.138 595.887 622.754 659.644 619.839C723.152 616.924 765.326 645.75 802.29 683.32C839.005 720.567 831.679 809.71 831.679 809.71L811.519 927.428C811.519 983.484 795.095 1080.08 872 1117H0V-21.4498Z" fill="#E5F2E7"/>
<path d="M0 461.357C30.2609 479.311 60.7761 497.264 85.4426 521.512C110.363 545.761 129.435 576.538 154.865 587.263C180.294 598.222 211.826 589.128 231.916 603.351C252.259 617.807 261.159 655.579 279.723 672.832C298.286 690.086 326.767 686.822 359.062 687.755C391.612 688.92 428.23 693.817 427.213 725.293C426.196 756.536 387.797 814.127 403.564 833.012C419.075 852.132 488.752 832.313 540.882 830.681C593.012 829.049 597.239 844.316 627.5 865.766C657.507 887.45 650.132 933.706 627.5 965.648C604.614 997.591 597.081 1016.28 593.012 1045.42C588.943 1074.57 652.008 1095.78 715.073 1117H0V461.357Z" fill="#B0D7B7"/>
<path d="M0 625.268C22.8864 638.791 45.5185 652.081 64.0819 670.501C82.6453 688.687 97.1401 711.537 116.212 719.697C135.03 727.858 158.933 721.096 173.937 731.822C189.194 742.547 195.806 770.992 209.792 783.816C223.778 796.873 245.139 794.308 269.297 795.241C293.709 795.94 321.172 799.671 320.41 823.22C319.647 846.769 290.912 889.903 302.609 904.126C314.307 918.349 366.437 903.426 405.598 902.261C444.759 901.095 470.697 913.452 493.329 929.54C515.961 945.861 535.033 965.913 517.995 989.695C500.958 1013.71 447.811 1041.46 444.759 1063.37C441.707 1085.29 489.006 1101.15 536.305 1117H0V625.268Z" fill="#7ABD8A"/>
<path d="M0 789.179C15.2576 798.039 30.2609 807.132 42.7213 819.256C55.1817 831.38 64.5905 846.769 77.3052 852.131C90.0198 857.494 105.786 853.064 115.958 860.292C126.129 867.52 130.452 886.173 139.861 894.799C149.27 903.426 163.256 902.027 179.531 902.494C195.806 902.96 214.115 905.525 213.606 921.146C213.098 936.768 194.026 965.68 201.655 975.006C209.538 984.566 244.376 974.54 270.314 973.84C296.506 973.141 313.798 981.301 328.801 992.027C344.059 1002.99 356.774 1016.28 345.33 1032.13C334.141 1047.98 298.54 1066.64 296.506 1081.33C294.472 1095.78 326.004 1106.51 357.536 1117H0V789.179Z" fill="#3DA25E"/>
<path d="M0 953.089C7.6288 957.519 15.2576 961.949 21.3606 968.245C27.4637 974.307 32.2953 981.768 38.6526 984.566C45.0099 987.364 52.893 985.032 57.9789 988.53C63.0647 992.26 65.3534 1001.59 69.9307 1006.02C74.5079 1010.21 81.6282 1009.51 89.7655 1009.75C97.9029 1009.98 107.057 1011.15 106.803 1019.07C106.549 1027 96.8858 1041.22 100.954 1046.12C104.769 1050.78 122.061 1045.89 135.284 1045.42C148.253 1044.95 156.899 1049.15 164.528 1054.51C171.902 1059.88 178.26 1066.64 172.665 1074.57C167.071 1082.49 149.27 1091.82 148.253 1099.05C147.236 1106.51 163.002 1111.64 178.768 1117H0V953.089Z" fill="#009448"/>
</g>
<defs>
<clipPath id="clip0_38_79">
<rect width="1728" height="1117" fill="white"/>
</clipPath>
</defs>
</svg>
